<svg viewBox="0 0 98 98" width="160" height="160" xmlns="http://www.w3.org/2000/svg" role="img" aria-label="L-shape pattern">
  <style>
    .on { fill: #4A9EFF; }
    .off { fill: #1a0a2e; stroke: rgba(255,255,255,0.12); stroke-width: 0.4; }
  </style>
  <rect x="0" y="0" width="18" height="18" rx="2" class="on"/>
  <rect x="20" y="0" width="18" height="18" rx="2" class="off"/>
  <rect x="40" y="0" width="18" height="18" rx="2" class="off"/>
  <rect x="60" y="0" width="18" height="18" rx="2" class="off"/>
  <rect x="80" y="0" width="18" height="18" rx="2" class="off"/>
  <rect x="0" y="20" width="18" height="18" rx="2" class="on"/>
  <rect x="20" y="20" width="18" height="18" rx="2" class="off"/>
  <rect x="40" y="20" width="18" height="18" rx="2" class="off"/>
  <rect x="60" y="20" width="18" height="18" rx="2" class="off"/>
  <rect x="80" y="20" width="18" height="18" rx="2" class="off"/>
  <rect x="0" y="40" width="18" height="18" rx="2" class="on"/>
  <rect x="20" y="40" width="18" height="18" rx="2" class="on"/>
  <rect x="40" y="40" width="18" height="18" rx="2" class="on"/>
  <rect x="60" y="40" width="18" height="18" rx="2" class="off"/>
  <rect x="80" y="40" width="18" height="18" rx="2" class="off"/>
  <rect x="0" y="60" width="18" height="18" rx="2" class="off"/>
  <rect x="20" y="60" width="18" height="18" rx="2" class="off"/>
  <rect x="40" y="60" width="18" height="18" rx="2" class="off"/>
  <rect x="60" y="60" width="18" height="18" rx="2" class="off"/>
  <rect x="80" y="60" width="18" height="18" rx="2" class="off"/>
  <rect x="0" y="80" width="18" height="18" rx="2" class="off"/>
  <rect x="20" y="80" width="18" height="18" rx="2" class="off"/>
  <rect x="40" y="80" width="18" height="18" rx="2" class="off"/>
  <rect x="60" y="80" width="18" height="18" rx="2" class="off"/>
  <rect x="80" y="80" width="18" height="18" rx="2" class="off"/>
</svg>
